<svg id="visual" viewBox="0 0 900 600" width="900" height="600" xmlns="http://www.w3.org/2000/svg" xmlns:xlink="http://www.w3.org/1999/xlink" version="1.1"><rect x="0" y="0" width="900" height="600" fill="#f5fbff"></rect><g fill="none" stroke="#715DF2" stroke-width="4"><path d="M0 -108.5L24.4 -33.5L103.2 -33.5L39.4 12.8L63.8 87.8L0 41.5L-63.8 87.8L-39.4 12.8L-103.2 -33.5L-24.4 -33.5Z" transform="translate(867 518)"></path><path d="M0 -27.4L6.1 -8.5L26 -8.5L9.9 3.2L16.1 22.1L0 10.5L-16.1 22.1L-9.9 3.2L-26 -8.5L-6.1 -8.5Z" transform="translate(482 545)"></path><path d="M0 -96.3L21.6 -29.7L91.6 -29.7L35 11.4L56.6 77.9L0 36.8L-56.6 77.9L-35 11.4L-91.6 -29.7L-21.6 -29.7Z" transform="translate(291 215)"></path><path d="M0 -104.8L23.5 -32.4L99.6 -32.4L38.1 12.4L61.6 84.8L0 40L-61.6 84.8L-38.1 12.4L-99.6 -32.4L-23.5 -32.4Z" transform="translate(96 579)"></path><path d="M0 -103.8L23.3 -32.1L98.7 -32.1L37.7 12.3L61 84L0 39.7L-61 84L-37.7 12.3L-98.7 -32.1L-23.3 -32.1Z" transform="translate(741 247)"></path><path d="M0 -34L7.6 -10.5L32.3 -10.5L12.3 4L20 27.5L0 13L-20 27.5L-12.3 4L-32.3 -10.5L-7.6 -10.5Z" transform="translate(58 28)"></path><path d="M0 -91.6L20.6 -28.3L87.1 -28.3L33.3 10.8L53.8 74.1L0 35L-53.8 74.1L-33.3 10.8L-87.1 -28.3L-20.6 -28.3Z" transform="translate(484 45)"></path><path d="M0 -42.5L9.5 -13.1L40.4 -13.1L15.4 5L25 34.4L0 16.2L-25 34.4L-15.4 5L-40.4 -13.1L-9.5 -13.1Z" transform="translate(50 334)"></path><path d="M0 -83.1L18.6 -25.7L79 -25.7L30.2 9.8L48.8 67.2L0 31.7L-48.8 67.2L-30.2 9.8L-79 -25.7L-18.6 -25.7Z" transform="translate(752 15)"></path><path d="M0 -49.1L11 -15.2L46.7 -15.2L17.8 5.8L28.8 39.7L0 18.7L-28.8 39.7L-17.8 5.8L-46.7 -15.2L-11 -15.2Z" transform="translate(515 308)"></path></g></svg>