<svg id="visual" viewBox="0 0 900 600" width="900" height="600" xmlns="http://www.w3.org/2000/svg" xmlns:xlink="http://www.w3.org/1999/xlink" version="1.1"><rect x="0" y="0" width="900" height="600" fill="#c9e0f3"></rect><defs><linearGradient id="grad1_0" x1="33.3%" y1="0%" x2="100%" y2="100%"><stop offset="20%" stop-color="#715df2" stop-opacity="1"></stop><stop offset="80%" stop-color="#715df2" stop-opacity="1"></stop></linearGradient></defs><defs><linearGradient id="grad1_1" x1="33.3%" y1="0%" x2="100%" y2="100%"><stop offset="20%" stop-color="#715df2" stop-opacity="1"></stop><stop offset="80%" stop-color="#c9e0f3" stop-opacity="1"></stop></linearGradient></defs><defs><linearGradient id="grad2_0" x1="0%" y1="0%" x2="66.7%" y2="100%"><stop offset="20%" stop-color="#715df2" stop-opacity="1"></stop><stop offset="80%" stop-color="#715df2" stop-opacity="1"></stop></linearGradient></defs><defs><linearGradient id="grad2_1" x1="0%" y1="0%" x2="66.7%" y2="100%"><stop offset="20%" stop-color="#c9e0f3" stop-opacity="1"></stop><stop offset="80%" stop-color="#715df2" stop-opacity="1"></stop></linearGradient></defs><g transform="translate(900, 0)"><path d="M0 459.7C-29.9 433 -59.8 406.2 -89.5 391.9C-119.1 377.6 -148.4 375.7 -175.3 364C-202.2 352.3 -226.6 330.8 -246.9 309.6C-267.2 288.4 -283.3 267.6 -315.9 251.9C-348.4 236.2 -397.3 225.7 -414.2 199.5C-431.1 173.2 -416 131.3 -418.2 95.5C-420.5 59.6 -440.1 29.8 -459.7 0L0 0Z" fill="#70a8ff"></path><path d="M0 229.9C-15 216.5 -29.9 203.1 -44.7 196C-59.5 188.8 -74.2 187.8 -87.6 182C-101.1 176.1 -113.3 165.4 -123.5 154.8C-133.6 144.2 -141.7 133.8 -157.9 125.9C-174.2 118.1 -198.6 112.8 -207.1 99.7C-215.5 86.6 -208 65.7 -209.1 47.7C-210.2 29.8 -220.1 14.9 -229.9 0L0 0Z" fill="#715df2"></path></g><g transform="translate(0, 600)"><path d="M0 -459.7C36 -458 72 -456.2 100.1 -438.7C128.3 -421.2 148.6 -388 180.1 -373.9C211.5 -359.8 254 -364.9 275.6 -345.6C297.1 -326.2 297.7 -282.5 322.1 -256.9C346.5 -231.3 394.8 -223.9 414.2 -199.5C433.6 -175 424.2 -133.5 427 -97.5C429.8 -61.4 444.8 -30.7 459.7 0L0 0Z" fill="#70a8ff"></path><path d="M0 -229.9C18 -229 36 -228.1 50.1 -219.4C64.1 -210.6 74.3 -194 90 -187C105.7 -179.9 127 -182.5 137.8 -172.8C148.6 -163.1 148.9 -141.2 161.1 -128.4C173.3 -115.6 197.4 -111.9 207.1 -99.7C216.8 -87.5 212.1 -66.8 213.5 -48.7C214.9 -30.7 222.4 -15.3 229.9 0L0 0Z" fill="#715df2"></path></g></svg>